<?xml version="1.0" encoding="utf-8"?>
<!-- Generator: Adobe Illustrator 27.5.0, SVG Export Plug-In . SVG Version: 6.00 Build 0)  -->
<svg version="1.1" xmlns="http://www.w3.org/2000/svg" xmlns:xlink="http://www.w3.org/1999/xlink" x="0px"
     y="0px" viewBox="0 0 128 128" style="enable-background:new 0 0 128 128;" xml:space="preserve">
<style type="text/css">
	.st-dark{fill:#333333;}
</style>
<path class="st-dark" d="M5.2,47.1l18,8.8l-15,7.4c-0.9,0.4-1.2,1.5-0.8,2.3c0.2,0.3,0.5,0.6,0.8,0.8l21.3,10.5l-16.3,8
	c-0.9,0.4-1.2,1.5-0.8,2.3c0.2,0.3,0.5,0.6,0.8,0.8l50,24.6c0.5,0.2,1.1,0.2,1.5,0l50-24.6c0.9-0.4,1.2-1.5,0.8-2.3
	c-0.2-0.3-0.5-0.6-0.8-0.8l-16.3-8l21.3-10.5c0.9-0.4,1.2-1.5,0.8-2.3c-0.2-0.3-0.5-0.6-0.8-0.8l-15-7.4l18-8.8
	c0.9-0.4,1.2-1.5,0.8-2.3c-0.2-0.3-0.5-0.6-0.8-0.8l-58-28.5c-0.5-0.2-1.1-0.2-1.5,0l-58,28.5c-0.9,0.4-1.2,1.5-0.8,2.3
	C4.6,46.6,4.9,46.9,5.2,47.1L5.2,47.1z M110,86.4l-46,22.6L18,86.4l15.5-7.6l29.8,14.6c0.5,0.2,1.1,0.2,1.5,0l29.8-14.6L110,86.4z
	 M115,64.9L64,89.9L13,64.9l14.2-7l36,17.7c0.5,0.2,1.1,0.2,1.5,0l36-17.7L115,64.9z M64,19l54,26.5L64,72L10,45.5L64,19z"/>
</svg>
