<?xml version="1.0" encoding="utf-8"?>
<!-- Generator: Adobe Illustrator 27.6.1, SVG Export Plug-In . SVG Version: 6.00 Build 0)  -->
<svg version="1.1" xmlns="http://www.w3.org/2000/svg" xmlns:xlink="http://www.w3.org/1999/xlink" x="0px"
     y="0px" viewBox="0 0 128 128" style="enable-background:new 0 0 128 128;" xml:space="preserve">
<style type="text/css">
	.st0{fill:#115CFA;}
	.st1{fill:#333333;}
	.st2{fill:#FFFFFF;}
</style>
<path class="st0" d="M30.1,105.5L30.1,105.5l0.2,12l23.9-22.2c0,0,59,0.7,63.5-0.5c4.5-1.2,5.7-5.9,5.7-18.2
	c0-10.6-0.5-45.8-0.9-57.1H20.9c-3.8,0-5.4,1.6-5.4,5.2v60.4h14.4L30.1,105.5L30.1,105.5z"/>
<g>
	<path class="st1" d="M19.1,122.4c-1-1.2-1.6-2.8-1.6-4.5l0,0V97.7h-5.2c-5.2,0-9.4-4.2-9.4-9.2l0,0V16c0-5.2,4.3-9.2,9.5-9.2l0,0
		h103.1v2.4v2.4H12.5c-2.6,0-4.5,2.1-4.5,4.5l0,0v72.5c0,2.4,2.1,4.5,4.5,4.5l0,0h10.1V118c0,0.9,0.2,1.2,0.3,1.4l0,0
		c0.2,0.2,0.3,0.2,0.7,0.3l0,0c0.5,0,1.2-0.2,2.3-1l0,0c4-3.3,23.3-21.5,26.7-24.8l0,0l0.7-0.7h62.3c2.4,0,4.5-2.1,4.5-4.5l0,0V16.2
		c0-2.4-2.1-4.5-4.5-4.5l0,0V9.1V6.8c5.2,0,9.4,4.2,9.4,9.2l0,0v72.5c0,5-4.2,9.2-9.4,9.2l0,0H55.2c-4.9,4.7-22.2,21-26.4,24.5l0,0
		c-1.6,1.4-3.5,2.1-5.4,2.1l0,0l0,0l0,0C21.9,124.3,20.4,123.6,19.1,122.4L19.1,122.4z"/>
</g>
<g>
	<path class="st2" d="M82.8,54.7c-2.1,0-3.8-1.7-3.8-3.8l0,0c0-2.1,1.7-3.8,3.8-3.8l0,0H88v2.4v0.3v-0.3v-2.4c2.1,0,3.8,1.7,3.8,3.8
		l0,0c0,2.1-1.7,3.8-3.8,3.8l0,0H82.8L82.8,54.7z M40.7,54.7c-2.1,0-3.8-1.7-3.8-3.8l0,0c0-2.1,1.7-3.8,3.8-3.8l0,0h5.2v2.4v0.3
		v-0.3v-2.4c2.1,0,3.8,1.7,3.8,3.8l0,0c0,2.1-1.7,3.8-3.8,3.8l0,0H40.7L40.7,54.7z"/>
</g>
</svg>
